<?xml version="1.0" encoding="UTF-8" standalone="no"?>
<!-- Created with Inkscape (http://www.inkscape.org/) -->

<svg
   xmlns:dc="http://purl.org/dc/elements/1.1/"
   xmlns:cc="http://creativecommons.org/ns#"
   xmlns:rdf="http://www.w3.org/1999/02/22-rdf-syntax-ns#"
   xmlns:svg="http://www.w3.org/2000/svg"
   xmlns="http://www.w3.org/2000/svg"
   xmlns:sodipodi="http://sodipodi.sourceforge.net/DTD/sodipodi-0.dtd"
   xmlns:inkscape="http://www.inkscape.org/namespaces/inkscape"
   width="40"
   height="40"
   viewBox="0 0 10.583333 10.583334"
   version="1.1"
   id="svg4524"
   inkscape:version="0.92.4 (5da689c313, 2019-01-14)"
   sodipodi:docname="black_knight.svg">
  <defs
     id="defs4518" />
  <sodipodi:namedview
     id="base"
     pagecolor="#ffffff"
     bordercolor="#666666"
     borderopacity="1.0"
     inkscape:pageopacity="0.0"
     inkscape:pageshadow="2"
     inkscape:zoom="7.9195959"
     inkscape:cx="18.180374"
     inkscape:cy="11.664117"
     inkscape:document-units="mm"
     inkscape:current-layer="layer1"
     showgrid="false"
     units="px"
     inkscape:window-width="1366"
     inkscape:window-height="715"
     inkscape:window-x="-8"
     inkscape:window-y="-8"
     inkscape:window-maximized="1" />
  <metadata
     id="metadata4521">
    <rdf:RDF>
      <cc:Work
         rdf:about="">
        <dc:format>image/svg+xml</dc:format>
        <dc:type
           rdf:resource="http://purl.org/dc/dcmitype/StillImage" />
        <dc:title></dc:title>
      </cc:Work>
    </rdf:RDF>
  </metadata>
  <g
     inkscape:label="Layer 1"
     inkscape:groupmode="layer"
     id="layer1"
     transform="translate(0,-286.41665)">
    <g
       id="g5124"
       style="stroke:#ffffff;stroke-opacity:1;fill:none;fill-opacity:1">
      <path
         inkscape:connector-curvature="0"
         id="path5077"
         d="m 3.4745038,288.18008 c 0,0 -2.4054257,2.17157 -2.4388344,3.07361 -0.033409,0.90203 0.5345391,0.7684 0.5345391,0.7684 l 0.3006782,-0.13364 0.3674956,-0.4009 c 0,0 -0.5679478,1.13589 -0.2004522,0.90203 0.3674956,-0.23386 1.937704,-1.67043 2.7729214,-2.60587 0,0 -0.2004521,1.26953 -0.5679477,1.77066 -0.3674956,0.50113 -1.837478,1.87088 -1.837478,1.87088 0,0 -0.6013565,0.53453 -0.6013565,2.53906"
         style="fill:none;stroke:#ffffff;stroke-width:0.26458332px;stroke-linecap:butt;stroke-linejoin:miter;stroke-opacity:1;fill-opacity:1"
         sodipodi:nodetypes="cscccscscc" />
      <path
         d="m 4.1405145,289.10768 a 0.1837478,0.16704345 0 0 1 -0.2089483,0.13962 0.1837478,0.16704345 0 0 1 -0.1544463,-0.18937 0.1837478,0.16704345 0 0 1 0.2076752,-0.14119 0.1837478,0.16704345 0 0 1 0.1561582,0.18821"
         sodipodi:open="true"
         sodipodi:end="0.13711097"
         sodipodi:start="0.15359857"
         sodipodi:ry="0.16704345"
         sodipodi:rx="0.1837478"
         sodipodi:cy="289.08212"
         sodipodi:cx="3.95893"
         sodipodi:type="arc"
         id="path5089"
         style="opacity:1;fill:none;fill-opacity:1;fill-rule:nonzero;stroke:#ffffff;stroke-width:0.1;stroke-linecap:round;stroke-linejoin:round;stroke-miterlimit:4;stroke-dasharray:none;stroke-dashoffset:0;stroke-opacity:1" />
      <g
         transform="translate(0.00948041,-0.03937544)"
         id="g5117"
         style="stroke:#ffffff;stroke-opacity:1;fill:none;fill-opacity:1">
        <path
           style="fill:none;stroke:#ffffff;stroke-width:0.26458332px;stroke-linecap:butt;stroke-linejoin:miter;stroke-opacity:1;fill-opacity:1"
           d="m 1.8040693,295.96431 h 7.249686 v -1.90429 c 0,0 0.200452,-6.01357 -4.2763125,-6.01357 l 0.1336348,-0.53453 -0.5345391,0.53453 -0.4677217,0.0334 -0.3435674,-0.62879 -0.100226,0.7684"
           id="path5075"
           inkscape:connector-curvature="0"
           sodipodi:nodetypes="ccccccccc" />
        <path
           style="opacity:1;fill:none;fill-opacity:1;fill-rule:nonzero;stroke:#ffffff;stroke-width:0.04772374;stroke-linecap:round;stroke-linejoin:round;stroke-miterlimit:4;stroke-dasharray:none;stroke-dashoffset:0;stroke-opacity:1"
           d="m 7.4156541,34.708678 c 0,-1.288521 0.3326437,-3.606988 0.6988017,-4.870522 0.6124895,-2.113574 0.6479647,-2.161003 4.4704522,-5.976753 1.923292,-1.919903 3.703148,-3.808261 3.955236,-4.196352 0.89245,-1.373934 1.621451,-3.668688 2.182639,-6.870523 0.158238,-0.902824 0.267223,-1.662178 0.242188,-1.687453 -0.02503,-0.02528 -0.369656,0.315651 -0.765824,0.757614 -2.320538,2.58878 -9.9291669,9.84434 -10.1215931,9.651914 -0.025758,-0.02576 0.1655429,-0.511434 0.4251125,-1.079282 L 8.9746113,19.404874 8.6055071,19.103132 C 8.4024999,18.937174 8.1978108,18.799347 8.1506423,18.796849 8.103474,18.794349 7.741788,19.131039 7.3468956,19.545041 6.9011759,20.012333 6.419925,20.377587 6.077802,20.508246 5.5614385,20.705446 5.5059683,20.705134 5.1979369,20.503308 4.7431234,20.2053 4.5114655,19.574807 4.5114655,18.634966 c 0,-0.647754 0.079913,-0.96147 0.4272103,-1.677122 0.8918497,-1.837769 2.8165948,-4.191967 6.1709882,-7.5478712 1.305333,-1.3059212 2.340123,-2.4281375 2.299533,-2.4938141 -0.04059,-0.065677 0.01478,-0.1194119 0.123055,-0.1194119 0.140155,0 0.196855,-0.125146 0.196855,-0.4344898 0,-0.6292453 0.170939,-0.6400406 0.46755,-0.029527 l 0.259281,0.5336792 1.159824,-0.082016 c 1.049429,-0.07421 1.196035,-0.1165857 1.540263,-0.4452057 l 0.380437,-0.3631892 -0.08324,0.3343761 -0.08324,0.3343761 1.367853,0.086664 c 3.842532,0.2434555 6.565601,1.3941868 8.950362,3.7822985 2.948798,2.952941 4.804617,7.350121 5.685358,13.470896 0.152532,1.060031 0.223388,2.769619 0.270192,6.519155 l 0.06344,5.08233 H 20.561426 7.4156541 Z M 15.614988,10.309342 c 0.172649,-0.309016 0.168526,-0.3614365 -0.04717,-0.5997777 -0.263396,-0.2910494 -0.938123,-0.3536324 -1.182111,-0.1096442 -0.197802,0.1978017 -0.194409,0.7652359 0.0058,0.9654179 0.08651,0.08651 0.354627,0.140492 0.595811,0.119955 0.322715,-0.02748 0.488473,-0.126758 0.627698,-0.375951 z"
           id="path5091"
           inkscape:connector-curvature="0"
           transform="matrix(0.26458333,0,0,0.26458333,0,286.41665)" />
      </g>
    </g>
    <path
       style="opacity:1;fill:#000000;fill-opacity:1;fill-rule:nonzero;stroke:none;stroke-width:0.01262691;stroke-linecap:round;stroke-linejoin:round;stroke-miterlimit:4;stroke-dasharray:none;stroke-dashoffset:0;stroke-opacity:1"
       d="m 1.9836655,295.52777 c 0.00127,-0.47113 0.1178611,-1.14451 0.2697478,-1.55794 0.1166584,-0.31753 0.2177264,-0.44473 0.7839733,-0.98667 0.6657131,-0.63713 1.2809437,-1.29804 1.4043514,-1.50862 0.1407441,-0.24016 0.2622685,-0.56465 0.3744489,-0.99983 0.1041308,-0.40396 0.2067129,-0.9382 0.2069108,-1.07757 6.67e-5,-0.0574 -0.2362435,0.16204 -0.993802,0.92281 -0.8872616,0.89101 -1.8323843,1.76625 -1.8683963,1.73024 -0.00729,-0.007 0.039906,-0.13417 0.1048814,-0.28195 0.064975,-0.14778 0.1181368,-0.27605 0.1181368,-0.28505 0,-0.009 -0.048514,-0.0471 -0.1078082,-0.0846 l -0.1078082,-0.0683 -0.2179265,0.21012 c -0.2608631,0.25152 -0.4267065,0.32239 -0.5560741,0.23763 -0.1189361,-0.0779 -0.1796872,-0.24583 -0.1796872,-0.4966 0,-0.48937 0.4800473,-1.1551 1.8123259,-2.51334 0.3078789,-0.31387 0.5497372,-0.58073 0.5374629,-0.593 -0.012274,-0.0123 0.00274,-0.0223 0.033364,-0.0223 0.041181,0 0.055681,-0.0299 0.055681,-0.11496 0,-0.16575 0.048135,-0.17123 0.1192297,-0.0136 l 0.061739,0.13691 0.3121813,-0.0163 c 0.2877273,-0.0151 0.320094,-0.0239 0.4131972,-0.11277 l 0.1010158,-0.0964 -0.021757,0.0874 -0.021757,0.0874 0.3714864,0.0241 c 1.0077116,0.0653 1.7289311,0.3717 2.3579743,1.0017 0.8665527,0.86787 1.3974574,2.25289 1.5503617,4.04456 0.018817,0.2205 0.034369,0.89327 0.034559,1.49504 l 3.439e-4,1.09413 H 5.4575171 1.9830133 l 6.509e-4,-0.24221 z m 2.1572804,-6.42282 c 0.050695,-0.0774 0.050695,-0.0897 0,-0.16704 -0.039945,-0.061 -0.084293,-0.0835 -0.1642038,-0.0835 -0.1278231,0 -0.1896594,0.0504 -0.1896594,0.15464 0,0.17996 0.2537372,0.24874 0.3538632,0.0959 z"
       id="path5093"
       inkscape:connector-curvature="0" />
  </g>
</svg>
