<?xml version="1.0" encoding="UTF-8" standalone="no"?>
<!-- Created with Inkscape (http://www.inkscape.org/) -->

<svg
   xmlns:dc="http://purl.org/dc/elements/1.1/"
   xmlns:cc="http://creativecommons.org/ns#"
   xmlns:rdf="http://www.w3.org/1999/02/22-rdf-syntax-ns#"
   xmlns:svg="http://www.w3.org/2000/svg"
   xmlns="http://www.w3.org/2000/svg"
   xmlns:sodipodi="http://sodipodi.sourceforge.net/DTD/sodipodi-0.dtd"
   xmlns:inkscape="http://www.inkscape.org/namespaces/inkscape"
   width="40"
   height="40"
   viewBox="0 0 10.583333 10.583334"
   version="1.1"
   id="svg4728"
   inkscape:version="0.92.4 (5da689c313, 2019-01-14)"
   sodipodi:docname="white_queen.svg">
  <defs
     id="defs4722" />
  <sodipodi:namedview
     id="base"
     pagecolor="#ffffff"
     bordercolor="#666666"
     borderopacity="1.0"
     inkscape:pageopacity="0.0"
     inkscape:pageshadow="2"
     inkscape:zoom="7.0335613"
     inkscape:cx="-4.7237602"
     inkscape:cy="4.4647505"
     inkscape:document-units="mm"
     inkscape:current-layer="layer1"
     showgrid="false"
     units="px"
     inkscape:window-width="1366"
     inkscape:window-height="715"
     inkscape:window-x="-8"
     inkscape:window-y="-8"
     inkscape:window-maximized="1" />
  <metadata
     id="metadata4725">
    <rdf:RDF>
      <cc:Work
         rdf:about="">
        <dc:format>image/svg+xml</dc:format>
        <dc:type
           rdf:resource="http://purl.org/dc/dcmitype/StillImage" />
        <dc:title></dc:title>
      </cc:Work>
    </rdf:RDF>
  </metadata>
  <g
     inkscape:label="Layer 1"
     inkscape:groupmode="layer"
     id="layer1"
     transform="translate(0,-286.41665)">
    <g
       style="opacity:1;fill:#ffffff;fill-opacity:1;fill-rule:evenodd;stroke:#000000;stroke-width:1.5;stroke-linecap:round;stroke-linejoin:round;stroke-miterlimit:4;stroke-dasharray:none;stroke-opacity:1"
       transform="matrix(0.27437074,0,0,0.30102219,-0.88167486,284.96831)"
       id="g36">
      <path
         inkscape:connector-curvature="0"
         d="m 9,13 a 2,2 0 1 1 -4,0 2,2 0 1 1 4,0 z"
         transform="translate(-1,-1)"
         id="path18" />
      <path
         inkscape:connector-curvature="0"
         d="m 9,13 a 2,2 0 1 1 -4,0 2,2 0 1 1 4,0 z"
         transform="translate(15.5,-5.5)"
         id="path20" />
      <path
         inkscape:connector-curvature="0"
         d="m 9,13 a 2,2 0 1 1 -4,0 2,2 0 1 1 4,0 z"
         transform="translate(32,-1)"
         id="path22" />
      <path
         inkscape:connector-curvature="0"
         d="m 9,13 a 2,2 0 1 1 -4,0 2,2 0 1 1 4,0 z"
         transform="translate(7,-4.5)"
         id="path24" />
      <path
         inkscape:connector-curvature="0"
         d="m 9,13 a 2,2 0 1 1 -4,0 2,2 0 1 1 4,0 z"
         transform="translate(24,-4)"
         id="path26" />
      <path
         inkscape:connector-curvature="0"
         d="m 9,26 c 8.5,-1.5 21,-1.5 27,0 L 38,14 31,25 V 11 l -5.5,13.5 -3,-15 -3,15 -5.5,-14 V 25 L 7,14 Z"
         style="stroke-linecap:butt"
         id="path28" />
      <path
         inkscape:connector-curvature="0"
         d="m 9,26 c 0,2 1.5,2 2.5,4 1,1.5 1,1 0.5,3.5 -1.5,1 -1.5,2.5 -1.5,2.5 -1.5,1.5 0.5,2.5 0.5,2.5 6.5,1 16.5,1 23,0 0,0 1.5,-1 0,-2.5 0,0 0.5,-1.5 -1,-2.5 -0.5,-2.5 -0.5,-2 0.5,-3.5 1,-2 2.5,-2 2.5,-4 -8.5,-1.5 -18.5,-1.5 -27,0 z"
         style="stroke-linecap:butt"
         id="path30" />
      <path
         inkscape:connector-curvature="0"
         d="M 11.5,30 C 15,29 30,29 33.5,30"
         style="fill:none"
         id="path32" />
      <path
         inkscape:connector-curvature="0"
         d="m 12,33.5 c 6,-1 15,-1 21,0"
         style="fill:none"
         id="path34" />
    </g>
  </g>
</svg>
